<?xml version="1.0" encoding="UTF-8"?>
<svg version="1.1" xmlns="http://www.w3.org/2000/svg" width="580" height="386">
<path d="M0 0 C0.93194309 -0.00467997 1.86388618 -0.00935994 2.82406998 -0.01418173 C5.942429 -0.02613418 9.06034876 -0.01667337 12.17871094 -0.00723267 C14.4161403 -0.01129825 16.65356766 -0.01664005 18.89099121 -0.02316284 C24.96527526 -0.03684376 31.03940651 -0.0315345 37.11369324 -0.02202559 C43.46902886 -0.01443307 49.82435136 -0.02147347 56.1796875 -0.02618408 C67.53630071 -0.03199251 78.8928363 -0.02266646 90.24943399 -0.00740607 C100.54230034 0.00599684 110.83506517 0.00366865 121.12792969 -0.01016235 C133.08632323 -0.02622393 145.04465513 -0.03218921 157.0030632 -0.02332556 C163.33120918 -0.01864721 169.65928526 -0.01802872 175.98742676 -0.02793503 C181.93657902 -0.03659743 187.88553949 -0.03059585 193.83467102 -0.01325226 C196.01878033 -0.00928356 198.20290576 -0.01042798 200.38700867 -0.01704025 C203.36694808 -0.02523049 206.34627176 -0.01496427 209.32617188 0 C210.62452154 -0.01003825 210.62452154 -0.01003825 211.94910049 -0.02027929 C218.31107418 0.04174404 222.38271531 1.47180342 227.35058594 5.63095093 C233.70975512 13.19320617 233.09372348 20.88613684 233.05126953 30.36898804 C233.05533859 31.89397049 233.06068234 33.41894999 233.06719971 34.94392395 C233.0808406 39.07208806 233.07558775 43.20002647 233.06606245 47.32819438 C233.05844771 51.65662271 233.06551662 55.98503219 233.07022095 60.3134613 C233.0756738 67.58233089 233.06849984 74.85110893 233.05419922 82.1199646 C233.03787974 90.5116402 233.04315797 98.90309704 233.05967844 107.29476732 C233.07331404 114.51112863 233.07520265 121.72742427 233.06736243 128.94379431 C233.06269651 133.24873376 233.06203108 137.55357057 233.07197189 141.85850334 C233.08066932 145.9076118 233.07456927 149.95643966 233.05728912 154.00551796 C233.05333879 155.48732412 233.05443332 156.96915409 233.06107712 158.45095062 C233.12815572 174.93811393 233.12815572 174.93811393 228.08496094 181.40438843 C227.53324219 181.85040405 226.98152344 182.29641968 226.41308594 182.75595093 C225.87167969 183.2174353 225.33027344 183.67891968 224.77246094 184.15438843 C219.05972947 187.47623598 213.13035381 187.68258273 206.69848633 187.69979858 C205.39485138 187.71486702 205.39485138 187.71486702 204.06488037 187.73023987 C201.21350725 187.76094718 198.36222748 187.77807222 195.51074219 187.79501343 C193.52533675 187.8137351 191.53993918 187.83330925 189.55455017 187.85369873 C184.34488578 187.90492033 179.13519562 187.94459937 173.92541504 187.98184204 C168.60288165 188.02194429 163.28045453 188.07300822 157.95800781 188.12313843 C147.52644195 188.21977961 137.09481594 188.30422209 126.66308594 188.38095093 C127.72849609 189.97036499 127.72849609 189.97036499 128.81542969 191.59188843 C129.74387589 192.9798686 130.67225798 194.36789166 131.60058594 195.75595093 C132.06916016 196.4546228 132.53773438 197.15329468 133.02050781 197.87313843 C133.46845703 198.54345093 133.91640625 199.21376343 134.37792969 199.90438843 C134.79163818 200.52233276 135.20534668 201.1402771 135.6315918 201.77694702 C136.66308594 203.38095093 136.66308594 203.38095093 137.66308594 205.38095093 C139.52481817 205.97115925 139.52481817 205.97115925 141.78417969 206.31063843 C142.63310791 206.46403687 143.48203613 206.6174353 144.35668945 206.77548218 C145.26217529 206.93403687 146.16766113 207.09259155 147.10058594 207.25595093 C165.25310251 210.67108268 165.25310251 210.67108268 169.38964844 215.32235718 C170.66308594 217.38095093 170.66308594 217.38095093 170.97558594 220.31845093 C169.17902166 224.51043425 167.06957872 225.41222684 162.97558594 227.22079468 C156.02307914 229.6558118 148.91175725 231.12483626 141.66308594 232.38095093 C140.97230957 232.50099487 140.2815332 232.62103882 139.56982422 232.74472046 C110.35675969 237.46467382 69.41294316 238.58013211 42.28808594 225.50595093 C39.66308594 223.38095093 39.66308594 223.38095093 38.41308594 220.44345093 C38.66308594 217.38095093 38.66308594 217.38095093 40.70605469 214.86141968 C44.02403873 212.07817019 47.13513896 210.80055853 51.22558594 209.63095093 C52.27480225 209.31202881 52.27480225 209.31202881 53.34521484 208.98666382 C58.69421316 207.44487937 63.82407846 206.82214849 69.40527344 206.81454468 C70.15035156 206.67145874 70.89542969 206.5283728 71.66308594 206.38095093 C72.37275283 205.06999894 73.02548631 203.72842595 73.66308594 202.38095093 C75.15520929 199.93247427 76.72482114 197.53447056 78.28808594 195.13095093 C78.70832031 194.48126343 79.12855469 193.83157593 79.56152344 193.16220093 C80.59354267 191.56726212 81.62806622 189.97394424 82.66308594 188.38095093 C81.56807266 188.37508469 80.47305939 188.36921844 79.34486389 188.36317444 C69.00207515 188.30584661 58.65949464 188.23303253 48.31691837 188.14523602 C43.00027559 188.10059672 37.68370831 188.06132638 32.36694336 188.03451538 C27.23153128 188.0084182 22.09641071 187.96797041 16.96117973 187.91776466 C15.00652137 187.90113929 13.05181263 187.88959815 11.09709358 187.88333702 C8.34933367 187.87364871 5.60231232 187.84553344 2.85473633 187.81332397 C2.05487808 187.81475906 1.25501984 187.81619415 0.43092346 187.81767273 C-5.88547235 187.71363621 -12.32329788 186.67307521 -17.45800781 182.76766968 C-17.89242187 182.20692749 -18.32683594 181.6461853 -18.77441406 181.06845093 C-19.45310547 180.23893921 -19.45310547 180.23893921 -20.14550781 179.39266968 C-22.93189119 174.68779283 -23.58785574 170.18109066 -23.59761047 164.78416443 C-23.60469528 163.47342453 -23.61178009 162.16268463 -23.61907959 160.81222534 C-23.61678608 159.37167324 -23.61427642 157.93112146 -23.61157227 156.49057007 C-23.61592241 154.96411388 -23.62110656 153.43765988 -23.62705994 151.91120911 C-23.64042823 147.77483798 -23.64103106 143.63855836 -23.63849664 139.50216985 C-23.63742552 136.04542955 -23.64231385 132.58870765 -23.64710206 129.1319713 C-23.65818959 120.9754485 -23.6586388 112.81897176 -23.65258789 104.66244507 C-23.64654697 96.25544284 -23.65886381 87.84860792 -23.68015796 79.44163424 C-23.69778516 72.21597512 -23.70377358 64.99036921 -23.70052022 57.76468939 C-23.69870911 53.4524912 -23.70132636 49.14041239 -23.71523476 44.82823372 C-23.72782683 40.77259086 -23.72585605 36.71720853 -23.71282387 32.6615696 C-23.71046159 31.1761135 -23.71318028 29.69063898 -23.72144699 28.20520401 C-23.80251278 12.50220346 -23.80251278 12.50220346 -18.02441406 5.63095093 C-12.14292272 0.70691167 -7.39264162 -0.05715653 0 0 Z M-8.33691406 17.38095093 C-8.6452066 20.11574511 -8.6452066 20.11574511 -8.59761047 23.3717804 C-8.60469528 24.64914566 -8.61178009 25.92651093 -8.61907959 27.24258423 C-8.61678555 28.6662296 -8.61427582 30.08987464 -8.61157227 31.51351929 C-8.61591742 33.00646724 -8.62109991 34.49941296 -8.62705994 35.99235535 C-8.64048262 40.05431728 -8.64102498 44.11618635 -8.63849664 48.17816615 C-8.6374291 51.5654938 -8.64230472 54.95280249 -8.64710206 58.3401261 C-8.65820862 66.32957879 -8.65862825 74.31898448 -8.65258789 82.30844116 C-8.64654641 90.55866248 -8.65886085 98.80871332 -8.68015796 107.05890554 C-8.69775446 114.13495376 -8.7037784 121.21094763 -8.70052022 128.28701693 C-8.69870404 132.51642873 -8.70137667 136.74571895 -8.71523476 140.97511101 C-8.72777682 144.95189595 -8.72590364 148.92841455 -8.71282387 152.90519524 C-8.71045056 154.36652719 -8.71321965 155.82787767 -8.72144699 157.28918839 C-8.73185157 159.28048065 -8.72204642 161.27184826 -8.71113586 163.26313782 C-8.71130361 164.37867507 -8.71147135 165.49421232 -8.71164417 166.64355373 C-8.27977187 169.79837366 -7.77981177 170.45312311 -5.33691406 172.38095093 C-2.36983559 172.67599018 0.38741377 172.78540374 3.35571289 172.76190186 C4.70395504 172.76892181 4.70395504 172.76892181 6.07943439 172.77608359 C9.10356028 172.78808862 12.12723761 172.77855485 15.15136719 172.76913452 C17.31440496 172.77319777 19.47744067 172.77853826 21.64047241 172.7850647 C27.52465756 172.79877338 33.40868539 172.79342497 39.29287338 172.78392744 C45.44142847 172.77634923 51.58996979 172.78337133 57.73852539 172.78808594 C68.06529161 172.79354886 78.39199353 172.7863378 88.71875 172.77206421 C100.66974064 172.75573671 112.62057776 172.76102484 124.57156467 172.77754343 C134.81958362 172.791143 145.06755627 172.79308544 155.31558132 172.78522742 C161.44190933 172.78054249 167.56816511 172.77994853 173.69448853 172.78983688 C179.4531742 172.79848203 185.21166132 172.79252952 190.97032547 172.77515411 C193.08796483 172.77117614 195.20562081 172.77234557 197.32325363 172.77894211 C200.20588355 172.78709598 203.08787044 172.77691077 205.97045898 172.76190186 C207.2382946 172.7719401 207.2382946 172.7719401 208.53174305 172.78218114 C212.74328563 172.85832401 212.74328563 172.85832401 216.37695187 171.02844304 C218.33836434 168.51594325 218.03778147 166.41361989 218.03730774 163.26313782 C218.04432205 161.98295273 218.05133636 160.70276764 218.05856323 159.38378906 C218.05113531 157.96218716 218.04340415 156.54058681 218.03540039 155.11898804 C218.03782792 153.62427009 218.04154685 152.12955376 218.04646301 150.63484192 C218.05588029 146.57294489 218.04644009 142.51128846 218.03313088 138.4494102 C218.02182972 134.20357261 218.0259228 129.9577471 218.02787781 125.7118988 C218.02876111 118.58225565 218.01767203 111.45270752 217.99926758 104.3230896 C217.97809128 96.07228684 217.97459157 87.82162324 217.98082954 79.57079881 C217.98651755 71.64236542 217.98088472 63.71398119 217.96965599 55.78555489 C217.96500335 52.40719255 217.96413901 49.02886021 217.96624184 45.65049553 C217.96812089 41.67537395 217.96005054 37.70039469 217.94418144 33.72530556 C217.9399271 32.26355961 217.93909572 30.80179925 217.94187164 29.34004974 C217.94507738 27.35062007 217.93481641 25.36118205 217.92378235 23.3717804 C217.92172948 22.25662017 217.91967661 21.14145994 217.91756153 19.99250698 C217.92660035 17.22100112 217.92660035 17.22100112 215.66308594 15.38095093 C212.74687563 15.18298854 209.92550585 15.11178866 207.00805664 15.12698364 C206.1012103 15.12386366 205.19436396 15.12074368 204.26003742 15.11752915 C201.20291573 15.10951324 198.14599057 15.11588674 195.08886719 15.12216187 C192.90465172 15.1194536 190.72043717 15.1158936 188.53622437 15.11154175 C182.59009452 15.10239594 176.64403379 15.10597101 170.69790268 15.11229992 C164.4874833 15.1173486 158.27707 15.11267163 152.06665039 15.10952759 C140.96661817 15.105651 129.86661325 15.11188281 118.76658642 15.12204626 C108.69528676 15.13098218 98.6240332 15.12943027 88.55273438 15.12020874 C76.86689482 15.10951396 65.18108218 15.10551727 53.4952383 15.11143327 C47.3057844 15.11455814 41.11636228 15.11494818 34.9269104 15.10836029 C29.1091863 15.10260107 23.29154961 15.10655753 17.47383499 15.1181488 C15.33319876 15.12080304 13.19255522 15.12001739 11.05192184 15.11562347 C8.14055219 15.11019658 5.22946656 15.11696721 2.31811523 15.12698364 C1.03321434 15.12029148 1.03321434 15.12029148 -0.27764416 15.11346412 C-4.78142475 14.94757672 -4.78142475 14.94757672 -8.33691406 17.38095093 Z M90.66308594 204.38095093 C99.90308594 204.38095093 109.14308594 204.38095093 118.66308594 204.38095093 C113.45271335 194.47186745 113.45271335 194.47186745 104.85058594 187.50595093 C97.64325835 189.48443301 94.08647432 198.39002125 90.66308594 204.38095093 Z " fill="#000000" transform="translate(185.3369140625,75.61904907226563)"/>
<path d="M0 0 C3.55073734 1.71196265 5.36617723 2.93402533 7.375 6.3125 C8.48967265 11.10559238 8.75125614 14.5575882 6.4375 19 C2.46457916 23.88974873 -1.95171185 28.12861717 -6.71875 32.23828125 C-10.99968408 35.96904918 -15.13184208 39.84132063 -19.25 43.75 C-24.2641944 48.48884531 -29.28708201 53.2153236 -34.375 57.875 C-35.31085938 58.73867187 -36.24671875 59.60234375 -37.2109375 60.4921875 C-39.11684191 62.20589987 -41.06217285 63.87649739 -43.0390625 65.5078125 C-48.90350235 70.44384498 -51.90365976 74.02663019 -54.05859375 81.38671875 C-56.0858286 87.01418812 -60.41827949 91.24658174 -65.4375 94.375 C-69.31939981 96.14569114 -72.83491639 97.12314029 -77 98 C-69.65891323 102.29384321 -62.30035395 104.109257 -53.8125 102.375 C-47.55135176 100.43763651 -41.75798125 96.96619175 -38.078125 91.421875 C-36.30003796 87.42762151 -35.41878792 83.14600874 -34.60644531 78.86206055 C-33.52701553 73.65173603 -31.71547023 70.8308575 -28 67 C-24.21637737 64.58268554 -20.61639357 64.73026274 -16.2890625 65.31640625 C-12.37860897 66.48420381 -9.67944212 68.99360214 -7 72 C-4.6541397 76.6917206 -5.4981065 82.90351914 -6.68359375 87.85546875 C-10.9377758 100.37088399 -19.49145218 111.94168237 -31.50390625 117.9375 C-45.34486585 123.82911348 -58.6498456 125.06957021 -73 120 C-85.5293126 114.6820924 -93.75400692 105.17314987 -98.875 92.75 C-99.9540098 89.15330068 -100.58892893 86.70183901 -100 83 C-98.3125 80.625 -98.3125 80.625 -96 79 C-93.25 78.75 -93.25 78.75 -91 79 C-90.814375 78.175 -90.62875 77.35 -90.4375 76.5 C-87.60604878 69.60603181 -82.84512489 64.83465854 -76.08984375 61.76171875 C-74 61 -74 61 -71.87890625 60.51953125 C-64.25699711 58.71255457 -60.2782518 53.40344924 -55.43359375 47.67138672 C-53.07324704 44.91952473 -50.59368051 42.27940008 -48.125 39.625 C-45.4221038 36.69619009 -42.79478717 33.75787432 -40.3046875 30.6484375 C-39.54414063 29.77445313 -38.78359375 28.90046875 -38 28 C-37.34 28 -36.68 28 -36 28 C-35.7421875 27.42765625 -35.484375 26.8553125 -35.21875 26.265625 C-33.88634058 23.78871005 -32.34943882 21.8658834 -30.5 19.75 C-29.8915625 19.04359375 -29.283125 18.3371875 -28.65625 17.609375 C-27 16 -27 16 -25 16 C-24.7834375 15.45730469 -24.566875 14.91460937 -24.34375 14.35546875 C-22.53960874 11.19297694 -20.084037 8.83310456 -17.5 6.3125 C-17.00113281 5.81427734 -16.50226563 5.31605469 -15.98828125 4.80273438 C-10.81813896 -0.30503354 -7.14413048 -0.78892238 0 0 Z M-6 7 C-6.69480469 7.69738281 -7.38960937 8.39476563 -8.10546875 9.11328125 C-10.09466774 11.10388355 -12.09919545 13.07756553 -14.11328125 15.04296875 C-15.17973223 16.09110033 -16.24613804 17.13927786 -17.3125 18.1875 C-17.86228516 18.72052734 -18.41207031 19.25355469 -18.97851562 19.80273438 C-20.35715678 21.16424956 -21.68339727 22.57840502 -23 24 C-23 24.66 -23 25.32 -23 26 C-23.66 26 -24.32 26 -25 26 C-26.74275776 27.64587975 -26.74275776 27.64587975 -28.5 29.75 C-29.41265625 30.79414063 -29.41265625 30.79414063 -30.34375 31.859375 C-31.87976963 33.84460792 -32.9723966 35.71872045 -34 38 C-34.66 38 -35.32 38 -36 38 C-37.52702072 39.49273991 -37.52702072 39.49273991 -39.109375 41.45703125 C-41.69104958 44.49417743 -44.32314193 47.44299833 -47.078125 50.32421875 C-47.76390625 51.04287109 -48.4496875 51.76152344 -49.15625 52.50195312 C-50.56541651 53.97290212 -51.97692114 55.44161436 -53.390625 56.90820312 C-56.72654774 60.4115538 -59.77107091 63.65358827 -62 68 C-56.96477321 68 -55.38425065 66.00892421 -52 62.6875 C-46.29257611 57.21317634 -46.29257611 57.21317634 -43.625 55.26953125 C-43.08875 54.85058594 -42.5525 54.43164062 -42 54 C-42 53.34 -42 52.68 -42 52 C-41.42765625 51.75636719 -40.8553125 51.51273438 -40.265625 51.26171875 C-37.59566462 49.77482702 -35.86170993 48.01916092 -33.75 45.8125 C-28.97679158 40.92992183 -23.94201116 36.47774868 -18.72265625 32.08203125 C-17.62244141 31.14423828 -17.62244141 31.14423828 -16.5 30.1875 C-15.49453125 29.34251953 -15.49453125 29.34251953 -14.46875 28.48046875 C-12.76523616 27.11093455 -12.76523616 27.11093455 -13 25 C-12.43925781 24.75894531 -11.87851562 24.51789063 -11.30078125 24.26953125 C-8.51540511 22.73260893 -6.48019867 20.89130567 -4.1875 18.6875 C-3.37667969 17.92824219 -2.56585938 17.16898438 -1.73046875 16.38671875 C0.2794791 14.12519104 0.2794791 14.12519104 -0.078125 11.2890625 C-0.81319381 8.74239086 -0.81319381 8.74239086 -3.5625 7.6875 C-4.7690625 7.3471875 -4.7690625 7.3471875 -6 7 Z M-79.8046875 74.69921875 C-83.47753096 78.54851554 -87 82.52249134 -87 88 C-85.30330868 89.69669132 -83.19357491 89.21209414 -80.875 89.25 C-74.22291405 89.17244978 -70.31447493 88.00587827 -65.1875 83.5625 C-63.33437192 81.39169282 -62.06848117 79.6226356 -61 77 C-61.94875 76.608125 -62.8975 76.21625 -63.875 75.8125 C-67.34127338 73.80206144 -67.9802693 72.77300358 -69 69 C-74.41199065 69 -75.97001832 71.13664656 -79.8046875 74.69921875 Z " fill="#000000" transform="translate(336,108)"/>
</svg>
